<svg width="18" height="20" viewBox="0 0 18 20" fill="none" xmlns="http://www.w3.org/2000/svg">
<rect x="1" y="1" width="15.3333" height="17.6667" rx="7.66667" fill="#BFEDD5"/>
<rect x="1" y="1" width="15.3333" height="17.6667" rx="7.66667" stroke="white" stroke-width="2"/>
<path d="M8.82708 13.9167C8.94375 13.9069 9.0434 13.8608 9.12604 13.7781C9.20868 13.6955 9.25 13.5958 9.25 13.4792C9.25 13.3431 9.20625 13.2337 9.11875 13.151C9.03125 13.0684 8.91944 13.0319 8.78333 13.0417C8.38472 13.0708 7.96181 12.9615 7.51458 12.7135C7.06736 12.4656 6.78542 12.016 6.66875 11.3646C6.64931 11.2576 6.59826 11.1701 6.51562 11.1021C6.43299 11.034 6.33819 11 6.23125 11C6.09514 11 5.98333 11.051 5.89583 11.1531C5.80833 11.2552 5.77917 11.3743 5.80833 11.5104C5.97361 12.3951 6.3625 13.0271 6.975 13.4062C7.5875 13.7854 8.20486 13.9556 8.82708 13.9167ZM8.66667 15.6667C7.33472 15.6667 6.22396 15.2097 5.33438 14.2958C4.44479 13.3819 4 12.2444 4 10.8833C4 9.91111 4.38646 8.85382 5.15937 7.71146C5.93229 6.5691 7.10139 5.33194 8.66667 4C10.2319 5.33194 11.401 6.5691 12.174 7.71146C12.9469 8.85382 13.3333 9.91111 13.3333 10.8833C13.3333 12.2444 12.8885 13.3819 11.999 14.2958C11.1094 15.2097 9.99861 15.6667 8.66667 15.6667Z" fill="#345D4C"/>
</svg>
