<svg width="793" height="793" viewBox="0 0 793 793" fill="none" xmlns="http://www.w3.org/2000/svg">
<g clip-path="url(#clip0_52_1218)">
<g clip-path="url(#clip1_52_1218)">
<mask id="mask0_52_1218" style="mask-type:luminance" maskUnits="userSpaceOnUse" x="0" y="0" width="793" height="793">
<path d="M793 0H0V793H793V0Z" fill="white"/>
</mask>
<g mask="url(#mask0_52_1218)">
<path d="M388.214 34.6368C401.259 34.1554 417.928 35.2204 430.838 36.5553C507.47 44.4596 579.454 77.0586 635.942 129.439C710.587 198.595 748.438 289.859 752.216 391.079C752.791 410.269 751.947 429.471 749.701 448.537C729.504 626.956 590.654 751.679 412.085 758.162C316.923 760.699 229.013 730.119 158.781 665.019C87.4251 598.874 50.0284 507.454 46.6694 410.776C43.2716 312.993 73.9301 211.72 141.868 139.543C195.424 82.6448 264.868 48.9845 342.005 38.1693C357.675 35.9723 372.392 35.1182 388.214 34.6368Z" fill="#365E4C"/>
<path d="M362.211 106.979C375.25 105.931 382.275 114.928 385.818 126.292C392.45 147.558 376.836 166.579 376.046 187.1C375.377 204.487 390.285 221.234 401.875 232.803C401.522 214.644 400.368 196.56 406.304 179.036C409.359 170.03 414.532 159.265 423.609 154.96C427.214 153.25 431.709 152.581 435.488 154.134C438.292 155.284 440.262 157.604 441.354 160.386C445.714 171.494 438.125 182.497 432.878 191.766C430.342 196.247 427.933 200.773 425.843 205.481C414.474 231.069 410.374 277.868 420.615 304.3C422.087 308.093 424.546 313.221 428.549 314.786C430.621 315.595 432.851 315.317 434.799 314.308C437.8 312.752 439.774 309.677 440.99 306.616C448.359 288.008 430.059 274.722 434.64 261.776C435.604 259.051 437.734 256.242 440.436 255.069C442.643 254.113 445.226 254.283 447.433 255.157C451.271 256.676 453.702 260.437 455.351 264.046C470.12 296.391 441.513 351.213 428.65 381.776C424.224 392.288 420.902 403.071 416.859 413.708C423.287 406.781 429.939 399.636 436.905 393.294C461.787 370.647 493.383 350.654 501.282 315.662C505.855 296.459 502.672 273.59 484.9 261.965C474.786 255.348 458.488 248.314 461.88 232.711C463.243 226.435 470.185 221.437 476.695 222.482C491.285 224.824 491.06 245.225 504.33 249.261C506.544 249.868 509.867 249.957 511.814 248.476C520.697 241.713 518.08 229.687 515.013 221.11C508.593 203.138 495.378 192.055 480.787 180.894C470.434 173.167 458.36 162.294 462.271 147.848C464.873 138.235 474.216 131.25 484.172 134.864C501.019 140.978 512.198 161.025 520.054 176.08C540.363 214.997 541.858 257.721 528.197 299.116C531.957 298.29 535.98 297.351 539.488 295.734C547.495 292.011 554.051 285.755 558.144 277.931C574.822 246.522 550.822 226.505 558.678 205.692C560.085 201.951 562.142 198.358 565.986 196.727C568.708 195.574 572.24 195.592 574.95 196.77C587.468 202.207 581.075 221.685 580.863 231.872C580.779 235.533 581.316 239.278 582.741 242.669C584.356 246.528 587.563 250.265 591.593 251.712C594.756 252.849 597.863 252.08 600.78 250.648C603.496 249.317 605.536 247.447 607.129 244.878C613.063 235.336 613.606 217.529 617.557 206.305C619.099 201.911 621.787 196.467 626.263 194.504C628.454 193.544 630.706 193.793 632.858 194.72C637.446 196.695 640.408 201.054 642.224 205.536C644.856 212.005 645.236 218.879 644.208 225.737C639.094 259.94 600.093 276.175 577.705 297.818C569.58 305.595 563.108 314.935 558.686 325.277C574.229 326.441 591.654 325.015 603.53 313.891C607.939 309.69 611.622 305.009 615.556 300.305C621.396 293.316 629.628 285.92 639.474 290.082C647.812 293.605 647.796 304.959 644.314 312.068C640.676 319.501 634.428 325.639 627.677 330.362C611.096 341.97 591.391 346.732 571.53 348.742C558.132 350.135 546.345 351.272 533.521 356.071C527.55 358.325 521.824 361.181 516.426 364.593C507.036 370.569 498.684 377.684 490.104 384.736C473.941 398.018 456.935 411.408 443.43 427.442C434.717 437.718 427.45 449.137 421.824 461.377C409.603 488.109 401.863 524.085 412.344 552.316L412.647 552.084L413.154 551.701C421.854 545.083 432.418 540.878 439.414 532.151C451.371 517.239 436.739 502.85 435.244 487.482C434.764 482.526 435.647 476.234 439.054 472.389C440.932 470.267 443.836 468.536 446.725 468.459C460.529 468.079 454.798 489.635 461.315 494.657C462.136 495.292 463.061 495.385 464.056 495.238C475.839 493.523 491.044 438.28 494.274 427.574C497.1 418.199 498.68 406.389 505.112 398.668C508.086 395.102 512.205 392.457 516.925 392.171C520.391 391.958 523.597 393.062 526.18 395.377C531.802 400.415 532.015 408.596 530.079 415.369C526.787 426.873 514.742 442.524 507.896 452.827C501.197 462.906 494.529 473.062 488.431 483.521C485.43 488.663 480.652 496.09 481.124 502.246C481.256 503.989 481.875 505.685 483.312 506.761C485.411 508.337 488.361 508.078 490.797 507.683C497.244 506.641 502.649 502.827 507.458 498.576C519.698 487.745 525.645 474.193 529.792 458.748C531.36 452.897 532.774 446.636 536.437 441.675C538.969 438.245 542.388 435.457 546.733 434.853C549.316 434.493 551.914 435.02 554.008 436.618C557.001 438.895 558.515 442.4 558.917 446.063C559.761 453.668 556.409 461.93 553.021 468.551C541.896 490.297 522.226 506.141 501.987 518.974C482.692 531.206 463.239 541.892 448.502 559.878C436.781 574.179 429.943 591.978 431.79 610.593C433.994 604.485 437.467 600.177 440.816 594.918C455.061 572.525 478.213 561.572 501.182 550.287C526.64 537.773 553.052 521.568 568.188 496.787C577.448 481.62 582.992 464.571 582.769 446.655C582.69 437.238 581.5 429.014 577.46 420.445C573.587 412.275 567.641 407.009 565.282 397.998C560.99 381.641 575.464 365.171 591.732 375.85C605.24 384.715 606.581 406.753 605.681 421.239C605.016 431.836 602.272 442.167 604.206 453.195C641.592 435.496 616.199 378.394 639.279 351.718C642.878 347.557 647.734 344.686 653.317 344.361C657.464 344.081 661.549 345.53 664.589 348.366C676.911 359.938 665.779 388.171 661.387 401.646C649.936 436.808 631.226 468.172 605.966 495.153C597.248 504.461 588.066 513.162 579.315 522.459C602.747 520.403 630.332 509.622 645.588 491.78C653.541 482.487 667.048 460.877 681.695 466.925C694.454 472.195 694.94 491.765 689.39 502.525C669.468 543.391 621.111 548.878 580.947 550.264C552.127 551.255 533.707 557.888 512.023 576.806C493.275 593.163 477.701 607.352 467.742 630.639C480.335 623.536 492.919 620.183 507.079 617.646C518.699 615.556 528.461 614.55 539.437 609.839C559.984 599.936 553.145 586.418 564.042 569.675C567.434 564.662 571.446 561.957 577.348 560.817C589.089 558.558 596.807 568.311 598.265 578.991C599.992 591.637 595.538 604.793 587.888 614.98C582.131 622.62 574.486 628.633 565.713 632.433C546.953 640.732 526.091 636.853 506.691 645.068C494.82 650.092 485.821 656.05 475.316 663.326C457.904 675.391 438.76 683.942 417.63 687.038C396.396 690.156 371.42 685.752 351.168 678.694C342.582 675.704 335.078 671.435 327.129 667.059C318.76 662.449 308.967 655.262 299.734 653.066C292.929 651.45 284.927 653.071 278.11 653.664C264.998 654.664 248.656 657.469 237.364 649.098C229.911 643.576 228.081 632.517 234.096 625.414C237.958 620.848 244.668 618.372 250.551 618.155C269.526 617.462 296.269 625.431 312.902 634.003C323.597 639.62 333.628 646.421 342.809 654.267C333.362 632.478 319.485 612.56 304.599 594.465C284.423 569.932 261.083 561.013 230.286 569.848C217.928 573.145 205.997 576.683 192.938 575.811C177.401 574.57 155.492 564.036 156.688 545.672C156.992 541.006 160.148 535.821 164.071 533.397C166.536 531.876 168.799 531.515 171.616 531.388C184.11 530.826 192.375 541.346 204.057 543.17C209.629 544.038 215.178 540.789 215.16 534.76C215.239 523.705 207.354 515.582 199.945 508.426C182.496 491.567 158.872 481.542 142.227 463.929C127.259 448.088 120.368 424.863 121.688 403.404C122.369 392.338 123.671 379.51 132.58 371.75C138.777 366.241 147.807 366.249 153.376 372.511C163.079 383.42 161.005 401.127 161.117 414.73C161.167 419.826 161.564 424.91 162.306 429.947C168.857 472.629 204.127 475.607 231.3 501.015C233.909 503.427 236.439 505.929 238.885 508.508C242.287 512.143 267.328 542.137 266.427 524.139C266.123 518.072 267.094 503.443 275.756 503.915C286.433 504.5 292.89 519.198 297.475 527.303C300.612 532.751 303.844 538.144 307.172 543.48C318.95 562.527 328.318 572.614 343.561 588.592C343.458 569.479 341.06 543.252 332.922 525.908C320.436 500.694 291.977 490.317 266.145 481.992C232.672 471.204 191.291 441.234 201.978 400.748C204.05 392.895 214.233 385.407 222.621 389.596C236.658 396.605 234.266 413.394 235.84 426.241C236.389 430.842 237.583 435.337 239.384 439.604C243.657 449.772 250.31 457.427 260.761 462.325C271.783 467.491 292.135 462.5 286.274 446.86C282.676 437.258 270.403 427.116 274.839 414.993C277.867 406.715 287.111 404.175 294.614 407.613C305.051 412.159 308.072 424.135 308.826 434.412C309.895 445.16 304.714 460.137 309.23 470.193C315.131 483.335 335.258 486.147 344.861 497.871C353.201 508.054 357.997 517.827 362.881 529.587C365.474 510.544 366.06 495.734 360.75 476.931C354.634 455.266 344.793 438.059 332.498 420.19C302.152 376.073 271.249 376.379 223.455 367.838C209.438 365.333 194.836 360.607 182.364 353.354C166.329 344.029 154.428 329.984 149.854 311.746C147.389 302.161 147.323 291.788 152.354 282.99C157.04 274.795 167.975 269.886 176.356 275.774C190.035 285.385 180.72 303.682 183.306 316.787C184.864 324.692 191.799 331.951 198.474 336.021C215.105 346.287 237.179 351.372 256.373 347.266C249.312 334.163 232.363 332.947 227.539 319.066C226.653 316.157 226.915 313.103 228.518 310.531C232.842 303.218 243.061 301.504 250.468 304.939C259.54 309.145 268.577 317.937 274.37 325.966C284.413 339.885 292.153 363.216 307.325 372.621C302.712 353.13 302.759 325.899 318.43 310.876C326.054 303.567 340.469 302.335 347.688 311.072C350.219 314.161 351.719 317.966 351.977 321.951C353.276 340.768 331.858 346.632 330.922 366.007C329.776 389.716 346.152 404.713 360.286 420.53C367.999 429.138 375.586 437.858 383.044 446.686C386.532 425.692 390.731 402.56 376.847 384.191C373.218 379.264 368.996 374.73 365.263 369.885C362.247 366.372 358.973 358.818 361.321 354.181C368.13 340.735 378.536 350.376 382.99 358.485C390.162 371.542 390.429 384.583 398.448 396.458C399.122 393.186 399.776 389.906 400.403 386.623C404.117 366.813 405.99 333.423 393.654 316.97C387.819 309.188 382.992 304.905 374.592 300.074C346.06 283.673 314.451 291.105 283.356 285.16C250.368 278.852 208.902 255.815 215.606 216.314C217.177 207.059 225.419 195.834 235.946 199.307C256.122 205.962 250.214 235.537 260.137 250.148C267.408 261.222 278.442 269.378 291.261 261.626C305.01 253.312 291.42 233.264 303.701 224.317C305.924 222.656 310.583 222.233 313.235 223.11C330.602 229.558 318.117 251.608 325.185 263.637C332.918 275.571 351.832 268.58 363.493 268.302C371.913 268.102 374.311 268.154 382.523 269.836C366.454 234.288 344.299 207.866 311.008 187.372C294.571 177.254 276.836 168.826 265.016 153.006C261.533 148.342 258.525 143.947 256.83 138.366C253.93 130.768 256.58 116.371 265.624 114.617C281.774 111.486 290.478 136.773 299.317 146.421C304.549 152.836 310.304 157.751 317.459 162.057C328.004 168.401 348.039 173.37 355.176 159.46C362.569 145.047 345.673 128.191 352.333 114.061C354.163 110.178 358.331 108.161 362.211 106.979Z" fill="#FEFEFE"/>
</g>
</g>
</g>
<defs>
<clipPath id="clip0_52_1218">
<rect width="793" height="793" fill="white"/>
</clipPath>
<clipPath id="clip1_52_1218">
<rect width="793" height="793" fill="white"/>
</clipPath>
</defs>
</svg>
