<svg width="36" height="36" viewBox="0 0 36 36" fill="none" xmlns="http://www.w3.org/2000/svg">
<path d="M4 36C2.9 36 1.95833 35.6083 1.175 34.825C0.391667 34.0417 0 33.1 0 32V24H4V32H12V36H4ZM24 36V32H32V24H36V32C36 33.1 35.6083 34.0417 34.825 34.825C34.0417 35.6083 33.1 36 32 36H24ZM0 12V4C0 2.9 0.391667 1.95833 1.175 1.175C1.95833 0.391667 2.9 0 4 0H12V4H4V12H0ZM32 12V4H24V0H32C33.1 0 34.0417 0.391667 34.825 1.175C35.6083 1.95833 36 2.9 36 4V12H32ZM18 28C15.2333 28 12.875 27.025 10.925 25.075C8.975 23.125 8 20.7667 8 18C8 15.2333 8.975 12.875 10.925 10.925C12.875 8.975 15.2333 8 18 8C20.7667 8 23.125 8.975 25.075 10.925C27.025 12.875 28 15.2333 28 18C28 20.7667 27.025 23.125 25.075 25.075C23.125 27.025 20.7667 28 18 28ZM18 24C19.6667 24 21.0833 23.4167 22.25 22.25C23.4167 21.0833 24 19.6667 24 18C24 16.3333 23.4167 14.9167 22.25 13.75C21.0833 12.5833 19.6667 12 18 12C16.3333 12 14.9167 12.5833 13.75 13.75C12.5833 14.9167 12 16.3333 12 18C12 19.6667 12.5833 21.0833 13.75 22.25C14.9167 23.4167 16.3333 24 18 24Z" fill="#345D4C"/>
</svg>
