<svg width="44" height="44" viewBox="0 0 44 44" fill="none" xmlns="http://www.w3.org/2000/svg">
<path d="M30.0123 19.9998C30.0123 19.7346 29.9069 19.4802 29.7194 19.2927C29.5319 19.1051 29.2775 18.9998 29.0123 18.9998C28.7471 18.9998 28.4927 19.1051 28.3052 19.2927C28.1176 19.4802 28.0123 19.7346 28.0123 19.9998H30.0123ZM16.0123 19.9998C16.0123 19.7346 15.9069 19.4802 15.7194 19.2927C15.5319 19.1051 15.2775 18.9998 15.0123 18.9998C14.7471 18.9998 14.4927 19.1051 14.3052 19.2927C14.1176 19.4802 14.0123 19.7346 14.0123 19.9998H16.0123ZM30.3053 22.7068C30.4939 22.8889 30.7465 22.9897 31.0087 22.9875C31.2709 22.9852 31.5217 22.88 31.7071 22.6946C31.8925 22.5092 31.9977 22.2584 32 21.9962C32.0022 21.734 31.9014 21.4814 31.7193 21.2928L30.3053 22.7068ZM22.0123 12.9998L22.7193 12.2928C22.5318 12.1053 22.2775 12 22.0123 12C21.7471 12 21.4928 12.1053 21.3053 12.2928L22.0123 12.9998ZM12.3053 21.2928C12.2098 21.385 12.1336 21.4954 12.0812 21.6174C12.0288 21.7394 12.0012 21.8706 12 22.0034C11.9989 22.1362 12.0242 22.2678 12.0745 22.3907C12.1247 22.5136 12.199 22.6253 12.2929 22.7192C12.3868 22.8131 12.4984 22.8873 12.6213 22.9376C12.7442 22.9879 12.8759 23.0132 13.0087 23.012C13.1415 23.0109 13.2727 22.9833 13.3947 22.9309C13.5167 22.8785 13.627 22.8023 13.7193 22.7068L12.3053 21.2928ZM17.0123 31.9998H27.0123V29.9998H17.0123V31.9998ZM30.0123 28.9998V19.9998H28.0123V28.9998H30.0123ZM16.0123 28.9998V19.9998H14.0123V28.9998H16.0123ZM31.7193 21.2928L22.7193 12.2928L21.3053 13.7068L30.3053 22.7068L31.7193 21.2928ZM21.3053 12.2928L12.3053 21.2928L13.7193 22.7068L22.7193 13.7068L21.3053 12.2928ZM27.0123 31.9998C27.8079 31.9998 28.571 31.6837 29.1336 31.1211C29.6962 30.5585 30.0123 29.7954 30.0123 28.9998H28.0123C28.0123 29.265 27.9069 29.5194 27.7194 29.7069C27.5319 29.8944 27.2775 29.9998 27.0123 29.9998V31.9998ZM17.0123 29.9998C16.7471 29.9998 16.4927 29.8944 16.3052 29.7069C16.1176 29.5194 16.0123 29.265 16.0123 28.9998H14.0123C14.0123 29.7954 14.3284 30.5585 14.891 31.1211C15.4536 31.6837 16.2166 31.9998 17.0123 31.9998V29.9998Z" fill="#345D4C"/>
</svg>
