<svg width="47" height="49" viewBox="0 0 47 49" fill="none" xmlns="http://www.w3.org/2000/svg">
<path d="M19.305 33H26.895L27.995 28.6H18.205L19.305 33ZM19.305 35.2C18.7917 35.2 18.3425 35.0441 17.9575 34.7325C17.5725 34.4208 17.3158 34.0175 17.1875 33.5225L15.95 28.6H30.25L29.0125 33.5225C28.8842 34.0175 28.6275 34.4208 28.2425 34.7325C27.8575 35.0441 27.4083 35.2 26.895 35.2H19.305ZM15.4 26.4H30.8V24.2H15.4V26.4ZM23.1 19.8C23.1 17.9666 23.7417 16.4083 25.025 15.125C26.3083 13.8416 27.8667 13.2 29.7 13.2C29.7 14.85 29.1775 16.28 28.1325 17.49C27.0875 18.7 25.7767 19.4333 24.2 19.69V22H33V26.4C33 27.005 32.7846 27.5229 32.3538 27.9537C31.9229 28.3845 31.405 28.6 30.8 28.6H15.4C14.795 28.6 14.2771 28.3845 13.8463 27.9537C13.4154 27.5229 13.2 27.005 13.2 26.4V22H22V19.69C20.4233 19.4333 19.1125 18.7 18.0675 17.49C17.0225 16.28 16.5 14.85 16.5 13.2C18.3333 13.2 19.8917 13.8416 21.175 15.125C22.4583 16.4083 23.1 17.9666 23.1 19.8Z" fill="#345D4C"/>
</svg>
