<svg width="42" height="42" viewBox="0 0 42 42" fill="none" xmlns="http://www.w3.org/2000/svg">
<path d="M21 21C19.7625 21 18.7031 20.5594 17.8219 19.6781C16.9406 18.7969 16.5 17.7375 16.5 16.5C16.5 15.2625 16.9406 14.2031 17.8219 13.3219C18.7031 12.4406 19.7625 12 21 12C22.2375 12 23.2969 12.4406 24.1781 13.3219C25.0594 14.2031 25.5 15.2625 25.5 16.5C25.5 17.7375 25.0594 18.7969 24.1781 19.6781C23.2969 20.5594 22.2375 21 21 21ZM12 30V26.85C12 26.2125 12.1641 25.6266 12.4922 25.0922C12.8203 24.5578 13.2563 24.15 13.8 23.8688C14.9625 23.2875 16.1437 22.8516 17.3438 22.5609C18.5438 22.2703 19.7625 22.125 21 22.125C22.2375 22.125 23.4563 22.2703 24.6562 22.5609C25.8562 22.8516 27.0375 23.2875 28.2 23.8688C28.7437 24.15 29.1797 24.5578 29.5078 25.0922C29.8359 25.6266 30 26.2125 30 26.85V30H12ZM14.25 27.75H27.75V26.85C27.75 26.6438 27.6984 26.4563 27.5953 26.2875C27.4922 26.1187 27.3562 25.9875 27.1875 25.8938C26.175 25.3875 25.1531 25.0078 24.1219 24.7547C23.0906 24.5016 22.05 24.375 21 24.375C19.95 24.375 18.9094 24.5016 17.8781 24.7547C16.8469 25.0078 15.825 25.3875 14.8125 25.8938C14.6437 25.9875 14.5078 26.1187 14.4047 26.2875C14.3016 26.4563 14.25 26.6438 14.25 26.85V27.75ZM21 18.75C21.6187 18.75 22.1484 18.5297 22.5891 18.0891C23.0297 17.6484 23.25 17.1188 23.25 16.5C23.25 15.8812 23.0297 15.3516 22.5891 14.9109C22.1484 14.4703 21.6187 14.25 21 14.25C20.3813 14.25 19.8516 14.4703 19.4109 14.9109C18.9703 15.3516 18.75 15.8812 18.75 16.5C18.75 17.1188 18.9703 17.6484 19.4109 18.0891C19.8516 18.5297 20.3813 18.75 21 18.75Z" fill="#345D4C"/>
</svg>
