<svg width="44" height="46" viewBox="0 0 44 46" fill="none" xmlns="http://www.w3.org/2000/svg">
<path d="M12 17V12H17V14H14V17H12ZM30 17V14H27V12H32V17H30ZM12 34V29H14V32H17V34H12ZM27 34V32H30V29H32V34H27ZM17 29H27V17H17V29ZM17 31C16.45 31 15.9792 30.8042 15.5875 30.4125C15.1958 30.0208 15 29.55 15 29V17C15 16.45 15.1958 15.9792 15.5875 15.5875C15.9792 15.1958 16.45 15 17 15H27C27.55 15 28.0208 15.1958 28.4125 15.5875C28.8042 15.9792 29 16.45 29 17V29C29 29.55 28.8042 30.0208 28.4125 30.4125C28.0208 30.8042 27.55 31 27 31H17ZM19 21H25V19H19V21ZM19 24H25V22H19V24ZM19 27H25V25H19V27ZM17 29V17V29Z" fill="#345D4C"/>
</svg>
